<svg width="30" height="18" viewBox="0 0 30 18" fill="none" xmlns="http://www.w3.org/2000/svg">
<path d="M29.4063 4.07698L16.1082 17.4147C15.9499 17.573 15.7784 17.6854 15.5937 17.7519C15.409 17.8184 15.2111 17.8511 15 17.8501C14.7889 17.8501 14.591 17.8168 14.4063 17.7503C14.2216 17.6838 14.0501 17.572 13.8918 17.4147L0.554089 4.07699C0.184696 3.70759 -6.38372e-07 3.24585 -6.62592e-07 2.69176C-6.86812e-07 2.13767 0.197888 1.66274 0.593667 1.26696C0.989445 0.871181 1.45119 0.673292 1.97889 0.673292C2.5066 0.673292 2.96834 0.871181 3.36412 1.26696L15 12.9028L26.6359 1.26696C27.0053 0.897565 27.4607 0.712868 28.0021 0.712868C28.5435 0.712868 29.0116 0.910758 29.4063 1.30654C29.8021 1.70231 30 2.16406 30 2.69176C30 3.21946 29.8021 3.68121 29.4063 4.07698Z" fill="white"/>
</svg>
