<svg width="24" height="42" viewBox="0 0 24 42" fill="none" xmlns="http://www.w3.org/2000/svg">
<path d="M8.91743 28.7368C8.91743 25.7526 9.18385 23.6062 9.7167 22.2976C10.2481 20.9904 11.3761 19.5632 13.1009 18.0158C14.6055 16.6895 15.7519 15.5378 16.5402 14.5607C17.3299 13.5852 17.7248 12.4711 17.7248 11.2184C17.7248 9.70789 17.2205 8.45526 16.2121 7.46053C15.2022 6.46579 13.7982 5.96842 12 5.96842C10.1284 5.96842 8.70605 6.53947 7.73284 7.68158C6.7611 8.82368 6.07339 9.98421 5.66972 11.1632L0 8.73158C0.770642 6.37368 2.18349 4.32895 4.23853 2.59737C6.29358 0.86579 8.88073 0 12 0C15.8532 0 18.8169 1.078 20.891 3.234C22.9637 5.38853 24 7.97632 24 10.9974C24 12.8395 23.6059 14.4148 22.8176 15.7235C22.0279 17.0306 20.789 18.5132 19.1009 20.1711C17.3028 21.9026 16.2114 23.2194 15.8268 24.1213C15.4407 25.0246 15.2477 26.5632 15.2477 28.7368H8.91743ZM12 42C10.789 42 9.75266 41.5675 8.89101 40.7024C8.02789 39.8359 7.59633 38.7947 7.59633 37.5789C7.59633 36.3632 8.02789 35.322 8.89101 34.4555C9.75266 33.5904 10.789 33.1579 12 33.1579C13.211 33.1579 14.2481 33.5904 15.1112 34.4555C15.9728 35.322 16.4037 36.3632 16.4037 37.5789C16.4037 38.7947 15.9728 39.8359 15.1112 40.7024C14.2481 41.5675 13.211 42 12 42Z" fill="#FAFAFA"/>
</svg>
