<svg width="109" height="70" viewBox="0 0 109 70" fill="none" xmlns="http://www.w3.org/2000/svg">
<path d="M109 35.0346C109 37.5964 108.173 39.7428 106.451 41.4045L79.993 67.3689C78.4772 69.0999 76.4791 70 74.1365 70C71.725 70 69.658 69.1691 68.0044 67.5767C66.3508 65.9842 65.4551 63.907 65.4551 61.4837C65.4551 59.0603 66.2819 56.9832 68.0044 55.3215L79.304 43.9664H8.33691C5.92541 43.9664 3.92731 43.1355 2.34261 41.4045C0.757903 39.6736 5.38639e-07 37.5964 5.38639e-07 35.1731C5.38639e-07 32.7497 0.757903 30.6726 2.34261 28.9416C3.92731 27.2107 5.92541 26.3106 8.33691 26.2413H79.304L68.0044 14.7478C66.3508 13.0861 65.4551 11.0781 65.4551 8.79328C65.4551 6.36993 66.2819 4.29278 68.0044 2.63106C69.7269 0.969338 71.725 0 74.2054 0C76.4102 0 78.4083 0.969343 80.0619 2.83878L106.52 28.8032C108.173 30.5341 109 32.542 109 35.0346Z" fill="white"/>
</svg>
