<svg width="31" height="32" viewBox="0 0 31 32" fill="none" xmlns="http://www.w3.org/2000/svg">
<path d="M23.8756 3.18776C21.512 1.72933 18.7963 0.87439 15.8291 0.87439V3.18776H23.8756Z" fill="#ED4C5C"/>
<path d="M15.8291 5.50112H26.6919C25.8369 4.64617 24.8814 3.84152 23.8756 3.18774H15.8291V5.50112Z" fill="white"/>
<path d="M15.8291 7.81447H28.5526C27.9995 6.95953 27.396 6.20517 26.7422 5.5011H15.8291V7.81447Z" fill="#ED4C5C"/>
<path d="M15.8291 10.1279H29.7596C29.4076 9.32323 29.0053 8.51858 28.5526 7.81451H15.8291V10.1279Z" fill="white"/>
<path d="M15.8291 12.4412H30.514C30.3128 11.6366 30.0614 10.8822 29.7596 10.1279H15.8291V12.4412Z" fill="#ED4C5C"/>
<path d="M15.8291 14.8049H30.866C30.8157 14.0002 30.6649 13.2459 30.514 12.4915H15.8291V14.8049Z" fill="white"/>
<path d="M30.8661 14.8049H15.8292V15.9616H0.741943C0.741943 16.3639 0.741943 16.716 0.792234 17.1183H30.8661C30.9164 16.716 30.9164 16.3639 30.9164 15.9616C30.9164 15.5593 30.9164 15.157 30.8661 14.8049Z" fill="#ED4C5C"/>
<path d="M1.14427 19.4317H30.514C30.7152 18.6773 30.8158 17.9229 30.8661 17.1183H0.792236C0.842527 17.8726 0.943108 18.6773 1.14427 19.4317Z" fill="white"/>
<path d="M1.89865 21.745H29.7597C30.0614 20.9907 30.3129 20.2363 30.5141 19.4316H1.14429C1.34545 20.2363 1.5969 20.9907 1.89865 21.745Z" fill="#ED4C5C"/>
<path d="M3.10566 24.0584H28.5528C29.0054 23.304 29.4077 22.5496 29.7597 21.745H1.89868C2.25072 22.5496 2.65304 23.304 3.10566 24.0584Z" fill="white"/>
<path d="M4.91618 26.3718H26.7423C27.3961 25.6677 28.0499 24.8631 28.5528 24.0584H3.10571C3.60862 24.9134 4.2624 25.6677 4.91618 26.3718Z" fill="#ED4C5C"/>
<path d="M7.73229 28.6851H23.9259C24.982 28.0314 25.8872 27.2267 26.7422 26.3718H4.91602C5.77096 27.277 6.72648 28.0314 7.73229 28.6851Z" fill="white"/>
<path d="M15.8292 31.0488C18.7964 31.0488 21.5624 30.1938 23.926 28.6851H7.73242C10.0961 30.1938 12.8621 31.0488 15.8292 31.0488Z" fill="#ED4C5C"/>
<path d="M7.78264 3.18776C6.72654 3.84154 5.77101 4.64619 4.91607 5.50113C4.212 6.2052 3.60851 7.00986 3.10561 7.81451C2.65299 8.56887 2.20037 9.32323 1.89863 10.1279C1.59689 10.8822 1.34543 11.6366 1.14427 12.4413C0.943106 13.1956 0.842525 13.95 0.792234 14.7546C0.741943 15.1569 0.741943 15.5593 0.741943 15.9616H15.8292V0.87439C12.862 0.87439 10.1463 1.72933 7.78264 3.18776Z" fill="#428BC1"/>
<path d="M12.3088 1.37732L12.5603 2.13168H13.3146L12.7112 2.63459L12.9123 3.38895L12.3088 2.93633L11.7053 3.38895L11.9065 2.63459L11.303 2.13168H12.0574L12.3088 1.37732ZM14.3205 4.39476L14.5719 5.14912H15.3263L14.7228 5.65203L14.924 6.40639L14.3205 5.95377L13.717 6.40639L13.9181 5.65203L13.3146 5.14912H14.069L14.3205 4.39476ZM10.2972 4.39476L10.5487 5.14912H11.303L10.6995 5.65203L10.9007 6.40639L10.2972 5.95377L9.69372 6.40639L9.89488 5.65203L9.29139 5.14912H10.0458L10.2972 4.39476ZM12.3088 7.4122L12.5603 8.16656H13.3146L12.7112 8.66947L12.9123 9.42383L12.3088 8.97121L11.7053 9.42383L11.9065 8.66947L11.303 8.16656H12.0574L12.3088 7.4122ZM8.28558 7.4122L8.53703 8.16656H9.29139L8.68791 8.66947L8.88907 9.42383L8.28558 8.97121L7.68209 9.42383L7.88326 8.66947L7.27977 8.16656H8.03413L8.28558 7.4122ZM4.26232 7.4122L4.51378 8.16656H5.26814L4.66465 8.66947L4.86581 9.42383L4.26232 8.97121L3.65884 9.42383L3.86 8.66947L3.25651 8.16656H4.01087L4.26232 7.4122ZM14.3205 10.4296L14.5719 11.184H15.3263L14.7228 11.6869L14.924 12.4413L14.3205 11.9887L13.717 12.4413L13.9181 11.6869L13.3146 11.184H14.069L14.3205 10.4296ZM10.2972 10.4296L10.5487 11.184H11.303L10.6995 11.6869L10.9007 12.4413L10.2972 11.9887L9.69372 12.4413L9.89488 11.6869L9.29139 11.184H10.0458L10.2972 10.4296ZM6.27395 10.4296L6.52541 11.184H7.27977L6.67628 11.6869L6.87744 12.4413L6.27395 11.9887L5.67046 12.4413L5.87163 11.6869L5.26814 11.184H6.0225L6.27395 10.4296ZM12.3088 13.4471L12.5603 14.2014H13.3146L12.7112 14.7044L12.9123 15.4587L12.3088 15.0061L11.7053 15.4587L11.9065 14.7044L11.303 14.2014H12.0574L12.3088 13.4471ZM8.28558 13.4471L8.53703 14.2014H9.29139L8.68791 14.7044L8.88907 15.4587L8.28558 15.0061L7.68209 15.4587L7.88326 14.7044L7.27977 14.2014H8.03413L8.28558 13.4471ZM4.26232 13.4471L4.51378 14.2014H5.26814L4.66465 14.7044L4.86581 15.4587L4.26232 15.0061L3.65884 15.4587L3.86 14.7044L3.25651 14.2014H4.01087L4.26232 13.4471ZM5.67046 6.40639L6.27395 5.95377L6.87744 6.40639L6.62599 5.65203L7.22948 5.14912H6.47511L6.27395 4.39476L6.0225 5.14912H5.31843L5.92192 5.60174L5.67046 6.40639ZM1.64721 12.4413L2.2507 11.9887L2.85418 12.4413L2.60273 11.6869L3.20622 11.184H2.50215L2.2507 10.4296L1.99924 11.184H1.49634C1.49634 11.2343 1.44604 11.2846 1.44604 11.3349L1.84837 11.6366L1.64721 12.4413Z" fill="white"/>
</svg>
